HIERARCHY
ROOT SpineBase
{
  OFFSET 0.000000 0.000000 0.000000
  CHANNELS 6 Xposition Yposition Zposition Zrotation Xrotation Yrotation
  JOINT SpineMid
  {
    OFFSET -0.000000 28.993556 0.000000
    CHANNELS 3 Zrotation Xrotation Yrotation
    JOINT SpineShoulder
    {
      OFFSET 0.001257 21.526457 -0.637986
      CHANNELS 3 Zrotation Xrotation Yrotation
      JOINT Neck
      {
        OFFSET -0.007755 7.134628 -0.508922
        CHANNELS 3 Zrotation Xrotation Yrotation
        JOINT Head
        {
          OFFSET -2.992265 12.715509 -0.450917
          CHANNELS 3 Zrotation Xrotation Yrotation
          End Site
          {
            OFFSET 0 0 0
          }
        }
      }
      JOINT ShoulderLeft
      {
        OFFSET -14.615180 -3.639785 6.013133
        CHANNELS 3 Zrotation Xrotation Yrotation
        JOINT ElbowLeft
        {
          OFFSET -1.218560 -26.034876 3.333328
          CHANNELS 3 Zrotation Xrotation Yrotation
          JOINT WristLeft
          {
            OFFSET 2.042948 -21.288324 -2.152997
            CHANNELS 3 Zrotation Xrotation Yrotation
            JOINT HandLeft
            {
              OFFSET -0.659049 -5.470016 -0.338575
              CHANNELS 3 Zrotation Xrotation Yrotation
              JOINT HandTipLeft
              {
                OFFSET 1.545360 -6.685209 -3.704212
                CHANNELS 3 Zrotation Xrotation Yrotation
                End Site
                {
                  OFFSET 0 0 0
                }
              }
              JOINT ThumbLeft
              {
                OFFSET 2.112825 0.018805 -5.865771
                CHANNELS 3 Zrotation Xrotation Yrotation
                End Site
                {
                  OFFSET 0 0 0
                }
              }
            }
          }
        }
      }
      JOINT ShoulderRight
      {
        OFFSET 11.200149 -4.012619 -11.212992
        CHANNELS 3 Zrotation Xrotation Yrotation
        JOINT ElbowRight
        {
          OFFSET 5.903851 -22.961116 -1.873952
          CHANNELS 3 Zrotation Xrotation Yrotation
          JOINT WristRight
          {
            OFFSET -1.407021 -20.377655 -4.255458
            CHANNELS 3 Zrotation Xrotation Yrotation
            JOINT HandRight
            {
              OFFSET -1.216099 -6.227432 0.213988
              CHANNELS 3 Zrotation Xrotation Yrotation
              JOINT HandTipRight
              {
                OFFSET 0.116891 -6.517329 0.565850
                CHANNELS 3 Zrotation Xrotation Yrotation
                End Site
                {
                  OFFSET 0 0 0
                }
              }
              JOINT ThumbRight
              {
                OFFSET -3.023290 -0.620041 -0.830083
                CHANNELS 3 Zrotation Xrotation Yrotation
                End Site
                {
                  OFFSET 0 0 0
                }
              }
            }
          }
        }
      }
    }
  }
  JOINT HipLeft
  {
    OFFSET -5.399660 0.818000 -0.264085
    CHANNELS 3 Zrotation Xrotation Yrotation
    JOINT KneeLeft
    {
      OFFSET 5.312193 -25.273485 6.746578
      CHANNELS 3 Zrotation Xrotation Yrotation
      JOINT AnkleLeft
      {
        OFFSET 8.305101 -33.528682 9.705857
        CHANNELS 3 Zrotation Xrotation Yrotation
        JOINT FootLeft
        {
          OFFSET -5.073658 -1.599167 -12.323210
          CHANNELS 3 Zrotation Xrotation Yrotation
          End Site
          {
            OFFSET 0 0 0
          }
        }
      }
    }
  }
  JOINT HipRight
  {
    OFFSET 5.301050 0.472556 -6.382597
    CHANNELS 3 Zrotation Xrotation Yrotation
    JOINT KneeRight
    {
      OFFSET 8.839734 -26.176316 5.347324
      CHANNELS 3 Zrotation Xrotation Yrotation
      JOINT AnkleRight
      {
        OFFSET 7.083424 -33.722399 8.137193
        CHANNELS 3 Zrotation Xrotation Yrotation
        JOINT FootRight
        {
          OFFSET -2.909646 -5.233049 -2.121799
          CHANNELS 3 Zrotation Xrotation Yrotation
          End Site
          {
            OFFSET 0 0 0
          }
        }
      }
    }
  }
}
MOTION
Frames: 10
Frame Time: 0.033333
6.296150 70.871198 338.352775 -1.673106 4.042927 30.804203 0.069678 -0.582008 -30.778117 0.102580 0.073907 -0.039412 -7.925487 4.663799 1.879589 0.000000 0.000000 0.000000 -123.478286 48.108443 54.466703 0.266958 68.816605 150.014654 46.718354 0.277294 92.777047 -50.624889 3.783318 -46.492263 0.000000 0.000000 0.000000 0.000000 0.000000 0.000000 -106.276242 27.691071 71.689157 -55.353705 6.878862 -74.154290 -67.411538 5.054072 -79.965950 9.695445 12.299652 -116.533522 0.000000 0.000000 0.000000 0.000000 0.000000 0.000000 -1.888439 -1.645338 -31.142021 3.452448 -3.626194 0.181830 7.737565 -18.363803 1.028604 0.000000 0.000000 0.000000 0.331958 -0.904850 -29.744236 0.028432 -7.567379 -2.078965 -1.493931 26.451315 -9.323882 0.000000 0.000000 0.000000
6.184920 70.999532 338.305718 -1.766412 3.984670 31.075099 0.046406 -0.519636 -31.052642 0.102390 0.030303 -0.045924 -8.543749 4.696755 1.878560 0.000000 0.000000 0.000000 -122.733334 48.242383 54.243047 3.611110 68.408927 145.181127 46.934272 2.745771 86.667360 -53.993707 0.423538 -42.963871 0.000000 0.000000 0.000000 0.000000 0.000000 0.000000 -106.583035 27.463233 72.001275 -54.847464 7.833089 -73.094475 -75.206426 11.976287 -150.120153 -21.796368 26.372460 -6.932683 0.000000 0.000000 0.000000 0.000000 0.000000 0.000000 -1.652485 -1.594884 -31.351797 3.365340 -3.701300 0.147783 6.177194 -15.003712 0.223826 0.000000 0.000000 0.000000 0.626727 -0.824054 -29.919259 -0.000354 -7.808646 -2.145983 -1.084421 18.757327 -5.826930 0.000000 0.000000 0.000000
6.093461 71.104075 338.284558 -1.849207 3.917101 31.202882 0.035826 -0.471193 -31.183167 0.110052 -0.018114 -0.050697 -9.108970 4.876487 1.923135 0.000000 0.000000 0.000000 -122.780028 48.372932 54.745195 6.999900 67.234565 140.229738 47.491757 4.827866 82.591854 -56.012126 -1.682688 -41.108738 0.000000 0.000000 0.000000 0.000000 0.000000 0.000000 -106.875949 26.738271 71.411824 -54.602759 8.313410 -72.188629 -71.905680 26.485158 147.290172 -39.665495 1.215714 71.787775 0.000000 0.000000 0.000000 0.000000 0.000000 0.000000 -1.443611 -1.511729 -31.428481 3.316688 -3.776544 0.124770 4.158170 -10.376785 -0.684432 0.000000 0.000000 0.000000 0.808939 -0.719381 -29.994343 -0.059185 -8.050975 -2.228899 3.693910 7.217523 -2.120958 0.000000 0.000000 0.000000
6.053694 71.163275 338.293273 -1.887933 3.849331 31.105619 0.031680 -0.433666 -31.088170 0.107531 -0.025176 -0.053753 -9.695325 5.019442 1.959247 0.000000 0.000000 0.000000 -123.492682 48.529784 55.837439 10.145793 65.213708 135.234080 47.548490 7.138197 75.193703 -55.599327 -10.424125 -37.488167 0.000000 0.000000 0.000000 0.000000 0.000000 0.000000 -107.012563 25.974809 70.423247 -53.873304 7.973680 -70.777678 -56.863542 34.810295 91.865394 -31.540069 -22.533222 146.836739 0.000000 0.000000 0.000000 0.000000 0.000000 0.000000 -1.368830 -1.544413 -31.329529 3.282113 -3.613081 0.150554 1.957901 -5.058151 -1.640813 0.000000 0.000000 0.000000 0.793150 -0.543723 -29.904135 0.141305 -8.166755 -2.208915 6.481124 2.808033 -0.858243 0.000000 0.000000 0.000000
6.036066 71.203078 338.324622 -1.888569 3.716269 31.146188 0.011617 -0.351695 -31.134003 0.084901 -0.033290 -0.058852 -9.950962 5.167789 2.001079 0.000000 0.000000 0.000000 -124.037501 48.561420 56.624164 10.016005 65.032035 135.711099 46.595438 7.181561 70.953460 -54.530256 -17.665681 -34.098660 0.000000 0.000000 0.000000 0.000000 0.000000 0.000000 -107.130493 25.390337 69.768454 -53.656954 7.445705 -70.626221 -44.475187 34.192899 57.595270 -15.953117 -28.136548 -161.079265 0.000000 0.000000 0.000000 0.000000 0.000000 0.000000 -1.336917 -1.368075 -31.378459 3.373744 -3.540137 0.197178 1.567162 -4.207460 -2.009334 0.000000 0.000000 0.000000 0.752311 -0.310419 -29.967595 0.381575 -8.279565 -2.172490 6.355898 5.550257 -2.516135 0.000000 0.000000 0.000000
6.013649 71.264302 338.344536 -1.921743 3.631234 31.277333 0.016076 -0.326660 -31.266814 0.067955 -0.049246 -0.062686 -10.023865 5.170155 1.994297 0.000000 0.000000 0.000000 -124.180258 48.516937 56.853215 12.059494 63.749234 132.212673 47.590388 8.875022 69.715777 -53.068613 -20.802951 -32.853076 0.000000 0.000000 0.000000 0.000000 0.000000 0.000000 -107.112163 25.211018 69.591802 -53.668183 7.443242 -70.453711 -37.447069 33.987512 44.280634 -12.028246 -27.572078 -142.084092 0.000000 0.000000 0.000000 0.000000 0.000000 0.000000 -1.289712 -1.203041 -31.509503 3.467054 -3.493612 0.240705 2.501966 -6.759885 -1.859138 0.000000 0.000000 0.000000 0.691180 -0.210335 -30.140829 0.625910 -8.269093 -2.097936 3.956812 15.422266 -7.030616 0.000000 0.000000 0.000000
6.001005 71.315395 338.372180 -1.952446 3.551164 31.432597 0.029225 -0.308097 -31.423012 0.051490 -0.066723 -0.065925 -10.021490 5.113168 1.967117 0.000000 0.000000 0.000000 -124.076059 48.377365 56.649361 13.995199 62.634005 128.854488 48.985642 11.006758 69.410651 -53.925624 -19.258248 -33.786700 0.000000 0.000000 0.000000 0.000000 0.000000 0.000000 -106.986605 25.415922 69.919090 -53.647152 7.515996 -70.390018 -34.076788 33.230268 36.803373 -8.622876 -24.580834 -126.300617 0.000000 0.000000 0.000000 0.000000 0.000000 0.000000 -1.249133 -1.004214 -31.663975 3.596232 -3.495268 0.285825 2.465373 -6.872869 -1.857140 0.000000 0.000000 0.000000 0.595027 -0.190420 -30.363995 0.778190 -8.375716 -2.068724 -0.189873 34.810876 -14.181744 0.000000 0.000000 0.000000
5.966141 71.365555 338.405434 -2.002046 3.452580 31.673095 0.043131 -0.295675 -31.664692 0.034861 -0.093670 -0.069998 -9.725030 5.138657 1.969265 0.000000 0.000000 0.000000 -123.875567 48.273211 56.477582 13.442889 63.797424 130.628911 48.120220 10.835625 65.753791 -52.382249 -19.801545 -33.845016 0.000000 0.000000 0.000000 0.000000 0.000000 0.000000 -106.811021 26.114077 71.083554 -53.702925 7.877185 -70.694103 -38.264869 35.427183 47.535959 -12.558706 -25.299043 -137.540978 0.000000 0.000000 0.000000 0.000000 0.000000 0.000000 -1.113846 -0.795753 -31.875843 3.683406 -3.561324 0.307934 2.413473 -6.983974 -1.681229 0.000000 0.000000 0.000000 0.676642 -0.119304 -30.603767 0.832824 -8.495341 -2.077335 -0.444083 38.863056 -15.896339 0.000000 0.000000 0.000000
5.931673 71.408029 338.425254 -2.049225 3.363429 31.861125 0.055693 -0.293938 -31.853727 0.017305 -0.124175 -0.073947 -9.391247 4.992351 1.910887 0.000000 0.000000 0.000000 -123.890857 48.248020 56.658514 13.296116 64.898342 132.162914 47.563963 11.739369 61.217829 -48.527830 -20.956435 -34.165861 0.000000 0.000000 0.000000 0.000000 0.000000 0.000000 -106.603164 26.973101 72.446539 -53.878911 8.386817 -71.110168 -38.433173 36.673604 49.635672 -15.112788 -22.010809 -141.634119 0.000000 0.000000 0.000000 0.000000 0.000000 0.000000 -0.975682 -0.629838 -32.034491 3.699897 -3.536668 0.327652 2.404981 -7.151514 -1.552142 0.000000 0.000000 0.000000 0.802830 -0.026503 -30.766410 0.858169 -8.509416 -2.076773 -1.475443 41.581746 -16.461752 0.000000 0.000000 0.000000
5.893376 71.434522 338.454491 -2.098351 3.274209 32.004152 0.074877 -0.295400 -31.997404 0.003504 -0.148935 -0.077203 -9.092740 4.868049 1.859913 0.000000 0.000000 0.000000 -123.933099 48.224715 56.850604 13.910184 65.329717 132.141970 49.654972 14.580083 69.275863 -47.928528 -14.958315 -40.911492 0.000000 0.000000 0.000000 0.000000 0.000000 0.000000 -106.731019 27.490592 73.662974 -54.114190 8.796052 -72.016598 -39.945776 36.112610 50.445783 -19.927804 -19.513432 -170.762484 0.000000 0.000000 0.000000 0.000000 0.000000 0.000000 -0.805363 -0.480258 -32.137963 3.705144 -3.675629 0.306846 2.382033 -7.174304 -1.316183 0.000000 0.000000 0.000000 0.999770 0.024993 -30.864664 0.829553 -8.413012 -2.063144 -1.471507 45.722265 -18.533124 0.000000 0.000000 0.000000
